<?xml version="1.0" encoding="UTF-8" standalone="no"?>
<svg width="46px" height="58px" viewBox="0 0 46 58" version="1.1" xmlns="http://www.w3.org/2000/svg" xmlns:xlink="http://www.w3.org/1999/xlink" xmlns:sketch="http://www.bohemiancoding.com/sketch/ns">
    <!-- Generator: Sketch 3.5.1 (25234) - http://www.bohemiancoding.com/sketch -->
    <title>Group</title>
    <desc>Created with Sketch.</desc>
    <defs></defs>
    <g id="Page-1" stroke="none" stroke-width="1" fill="none" fill-rule="evenodd" sketch:type="MSPage">
        <g id="Group" sketch:type="MSLayerGroup" fill="#FFFFFF">
            <g id="Shape" sketch:type="MSShapeGroup">
                <path d="M22.9,33 C21,33 19.1,32.2 17.8,30.8 C15.2,28 15.4,23.6 18.2,21 C19.5,19.8 21.2,19.2 22.9,19.2 C24.8,19.2 26.7,20 28,21.4 C29.3,22.8 29.9,24.5 29.8,26.4 C29.7,28.3 28.9,30 27.6,31.2 C26.3,32.3 24.6,33 22.9,33 L22.9,33 Z M22.9,21 C21.7,21 20.5,21.5 19.5,22.3 C17.5,24.2 17.4,27.3 19.2,29.3 C20.1,30.3 21.5,30.9 22.8,30.9 C24,30.9 25.2,30.4 26.2,29.6 C27.2,28.7 27.7,27.5 27.8,26.2 C27.9,24.9 27.4,23.6 26.5,22.6 C25.6,21.6 24.2,21 22.9,21 L22.9,21 Z"></path>
                <path d="M22.9,57.3 C18.7,57.3 15.1,55 14.2,51.9 L0.4,54.6 L0.4,53.4 C0.4,46.6 2.4,41.7 6.6,37.6 C5.1,18.2 13.7,6 22.4,0.9 L22.9,0.6 L23.4,0.9 C32,5.9 40.6,18.2 39.2,37.6 C43.5,41.7 45.4,46.6 45.4,53.5 L45.4,54.7 L31.5,52 C30.6,55 27.1,57.3 22.9,57.3 L22.9,57.3 Z M30.4,49.7 L43.4,52.3 C43.2,46.5 41.4,42.4 37.7,38.9 C37.6,38.8 37.4,38.6 37.3,38.5 C39.3,20.8 30.7,7.1 22.9,2.9 C14.9,7.9 7,19.6 8.7,38.1 L8.7,38.3 C4.6,41.9 2.7,46.2 2.4,52.1 L15.4,49.5 C15.4,49.6 16.9,55.2 22.9,55.3 C28.7,55.3 30.4,49.7 30.4,49.7 Z"></path>
            </g>
        </g>
    </g>
</svg>